<svg xmlns="http://www.w3.org/2000/svg" viewBox="0 0 75 75"><defs><style>.cls-1{fill:#ff3d00;}.cls-2{fill:#fff;}.cls-3{fill:#2e4053;}</style></defs><g id="Capa_5" data-name="Capa 5"><circle class="cls-1" cx="37.5" cy="37.5" r="37.5"/><path class="cls-2" d="M35.18,43.2a37.2,37.2,0,0,0,3.89-.82A17.81,17.81,0,0,0,43,40.84l-5.5-15.79L31,43.71C32.38,43.61,33.75,43.44,35.18,43.2Z"/><path class="cls-2" d="M12.93,62.07A1.8,1.8,0,0,1,12.5,61a1.74,1.74,0,0,1,.07-.64L29.12,14.58A2.85,2.85,0,0,1,32,12.5H43a2.85,2.85,0,0,1,2.85,2.08L62.43,60.35a1.74,1.74,0,0,1,.07.64A1.42,1.42,0,0,1,62,62a1.45,1.45,0,0,1-1,.47H51.8a2.38,2.38,0,0,1-2.42-1.58L45.67,50.81a40.86,40.86,0,0,1-5.21,1.65,48.87,48.87,0,0,1-5.1,1c-1.64.21-3.17.35-4.6.43s-2.66.1-3.71.1H25.37a5.43,5.43,0,0,1-1-.07,3.15,3.15,0,0,1,2.11,1.44,3,3,0,0,1,.17,2.87l-1,2.72A2.38,2.38,0,0,1,23.2,62.5H14A1.78,1.78,0,0,1,12.93,62.07ZM31,43.71q2-.15,4.14-.51a37.2,37.2,0,0,0,3.89-.82A17.81,17.81,0,0,0,43,40.84l-5.5-15.79Z"/><path class="cls-1" d="M35.18,43.2a37.2,37.2,0,0,0,3.89-.82A17.81,17.81,0,0,0,43,40.84l-5.5-15.79L31,43.71C32.38,43.61,33.75,43.44,35.18,43.2Z"/><path class="cls-3" d="M12.93,62.07A1.8,1.8,0,0,1,12.5,61a1.74,1.74,0,0,1,.07-.64L29.12,14.58A2.85,2.85,0,0,1,32,12.5H43a2.85,2.85,0,0,1,2.85,2.08L62.43,60.35a1.74,1.74,0,0,1,.07.64A1.42,1.42,0,0,1,62,62a1.45,1.45,0,0,1-1,.47H51.8a2.38,2.38,0,0,1-2.42-1.58L45.67,50.81a40.86,40.86,0,0,1-5.21,1.65,48.87,48.87,0,0,1-5.1,1c-1.64.21-3.17.35-4.6.43s-2.66.1-3.71.1H25.37a5.43,5.43,0,0,1-1-.07,3.15,3.15,0,0,1,2.11,1.44,3,3,0,0,1,.17,2.87l-1,2.72A2.38,2.38,0,0,1,23.2,62.5H14A1.78,1.78,0,0,1,12.93,62.07ZM31,43.71q2-.15,4.14-.51a37.2,37.2,0,0,0,3.89-.82A17.81,17.81,0,0,0,43,40.84l-5.5-15.79Z"/></g></svg>