<svg xmlns="http://www.w3.org/2000/svg" viewBox="0 0 188 51"><defs><style>.cls-1{fill:#ff3d00;}.cls-2{fill:#2e4053;}</style></defs><g id="Capa_5" data-name="Capa 5"><path class="cls-1" d="M22.88,31.2a37,37,0,0,0,3.88-.82,17.42,17.42,0,0,0,3.89-1.54L25.16,13.05,18.74,31.71Q20.74,31.56,22.88,31.2Z"/><path class="cls-2" d="M.62,50.07A1.85,1.85,0,0,1,.2,49a1.74,1.74,0,0,1,.07-.64L16.82,2.58A2.85,2.85,0,0,1,19.67.5h11a2.87,2.87,0,0,1,2.86,2.08L50.12,48.35a1.67,1.67,0,0,1,.08.64,1.62,1.62,0,0,1-1.5,1.51H39.5a2.41,2.41,0,0,1-2.43-1.58L33.36,38.81a41.23,41.23,0,0,1-5.2,1.65,48.87,48.87,0,0,1-5.1,1c-1.64.21-3.18.35-4.6.43s-2.67.1-3.71.1H13.07a5.36,5.36,0,0,1-1-.07,3.16,3.16,0,0,1,2.1,1.44,3,3,0,0,1,.18,2.87l-1,2.72a2.41,2.41,0,0,1-2.43,1.58H1.69A1.8,1.8,0,0,1,.62,50.07ZM18.74,31.71q2-.15,4.14-.51a37.75,37.75,0,0,0,3.89-.82,17.54,17.54,0,0,0,3.88-1.54L25.16,13.05Z"/><path class="cls-2" d="M84.11,20H76L74.86,23.4H69.37l7.46-22h6.4l7.47,22H85.21ZM82.6,15.24,80,7.18l-2.57,8.06Z"/><path class="cls-2" d="M92.42.5h4.71V23.4H92.42Z"/><path class="cls-2" d="M110.3,23.4l-5-6.93V23.4h-4.71v-22h4.71V14.59L110,7.71h5.49l-5.71,7.85,5.86,7.84Z"/><path class="cls-2" d="M132.51,7.71V23.4H127.8V21.93a5.88,5.88,0,0,1-4.67,1.91c-4.11,0-7.5-3.61-7.5-8.28s3.39-8.28,7.5-8.28a5.88,5.88,0,0,1,4.67,1.91V7.71Zm-4.71,7.85a3.74,3.74,0,1,0-7.47,0,3.74,3.74,0,1,0,7.47,0Z"/><path class="cls-2" d="M148,18.7c0,3.6-3.14,5.14-6.53,5.14-3.13,0-5.52-1.19-6.74-3.73l4.08-2.32a2.56,2.56,0,0,0,2.66,1.85c1.13,0,1.7-.35,1.7-1,0-1.72-7.72-.81-7.72-6.24,0-3.42,2.89-5.14,6.15-5.14a6.88,6.88,0,0,1,6.12,3.35l-4,2.17a2.27,2.27,0,0,0-2.1-1.38c-.82,0-1.32.31-1.32.88C140.25,14.08,148,12.89,148,18.7Z"/><path class="cls-2" d="M86,32.93H80.35V50.06h-5V32.93H69.68V28.1H86Z"/><path class="cls-2" d="M93.17,46.3a4.12,4.12,0,0,0,3-1.2L100,47.27a8,8,0,0,1-6.84,3.23c-5.36,0-8.69-3.61-8.69-8.28a8,8,0,0,1,8.35-8.28,7.91,7.91,0,0,1,8,8.28,9.52,9.52,0,0,1-.18,1.88H89.41C90,45.73,91.45,46.3,93.17,46.3Zm2.89-5.71a3.53,3.53,0,0,0-6.74,0Z"/><path class="cls-2" d="M103.4,27.16h4.7v22.9h-4.7Z"/><path class="cls-2" d="M119.52,46.3a4.09,4.09,0,0,0,3-1.2l3.77,2.17a8,8,0,0,1-6.84,3.23c-5.37,0-8.69-3.61-8.69-8.28a8,8,0,0,1,8.34-8.28,7.92,7.92,0,0,1,8,8.28,8.81,8.81,0,0,1-.19,1.88H115.75C116.35,45.73,117.79,46.3,119.52,46.3Zm2.89-5.71a3.54,3.54,0,0,0-6.75,0Z"/><path class="cls-2" d="M128.8,42.22A8.3,8.3,0,0,1,144.21,38l-4.11,2.39a3.27,3.27,0,0,0-3-1.76,3.64,3.64,0,0,0,0,7.28,3.23,3.23,0,0,0,3-1.76l4.11,2.35a8,8,0,0,1-7.09,4A8.13,8.13,0,0,1,128.8,42.22Z"/><path class="cls-2" d="M145,42.22a8.31,8.31,0,1,1,8.31,8.28A8.21,8.21,0,0,1,145,42.22Zm11.92,0a3.61,3.61,0,1,0-3.61,3.7A3.52,3.52,0,0,0,156.91,42.22Z"/><path class="cls-2" d="M187.8,40.43v9.63h-4.7V40.84c0-1.57-.75-2.58-2.26-2.58s-2.45,1.1-2.45,3v8.85h-4.7V40.84c0-1.57-.76-2.58-2.26-2.58s-2.45,1.1-2.45,3v8.85h-4.7V34.37H169v1.45a4.8,4.8,0,0,1,4.2-1.88A4.64,4.64,0,0,1,177.29,36a5.17,5.17,0,0,1,4.55-2.07C185.45,33.94,187.8,36.51,187.8,40.43Z"/></g></svg>